<svg width="24" height="31" viewBox="0 0 24 31" fill="none" xmlns="http://www.w3.org/2000/svg">
<path d="M23.5457 25.6816C23.4276 25.2412 23.2619 24.8466 23.0568 24.4951C22.6988 23.8789 22.2228 23.3992 21.6981 23.0192C21.3044 22.7336 20.8842 22.501 20.4566 22.3005C20.2195 22.1897 19.9806 22.0881 19.7434 21.9929C19.6867 21.3291 18.5761 20.789 18.5999 18.8471C18.6127 17.8492 19.5887 15.8854 18.3646 14.2988C18.5157 14.145 18.6585 13.9674 18.7885 13.7623C19.0412 13.3631 19.2444 12.8678 19.3817 12.2553C19.4211 12.085 19.4385 11.9166 19.4385 11.7499C19.4394 11.4029 19.3579 11.0724 19.2197 10.7758C19.1245 10.5707 19.0018 10.3821 18.8608 10.2119C18.9331 9.94449 19.021 9.5856 19.0989 9.16449C19.2069 8.58037 19.2967 7.88 19.2967 7.14207C19.2967 6.66693 19.2591 6.17527 19.1621 5.69006C19.0898 5.3266 18.9835 4.9659 18.8334 4.61978C18.6073 4.09977 18.2795 3.61086 17.8236 3.20715C17.4016 2.83361 16.8724 2.53607 16.2333 2.34471C15.9633 2.0215 15.6849 1.74688 15.3974 1.51801C14.9113 1.12982 14.3995 0.87166 13.8785 0.71416C13.3576 0.55666 12.8304 0.5 12.3048 0.5C12.0275 0.5 11.75 0.516465 11.4726 0.541191C11.2117 0.564102 10.9956 0.591523 10.8024 0.623574C10.514 0.67209 10.276 0.736191 10.0443 0.81582C9.81273 0.896387 9.59118 0.988848 9.29909 1.10422C9.18829 1.14723 9.04275 1.21133 8.86697 1.30016C8.56116 1.4549 8.16747 1.68283 7.74454 1.99777C7.11196 2.47021 6.41253 3.13672 5.86778 4.03941C5.59585 4.49076 5.36335 5.00164 5.19853 5.57199C5.03464 6.14234 4.93943 6.77316 4.93943 7.46258C4.93943 7.89195 4.97698 8.34606 5.05661 8.82125C5.05661 8.85424 5.05843 8.88535 5.05937 8.9174C5.06306 8.97693 5.06945 9.03828 5.07583 9.10232C5.08591 9.19754 5.09687 9.29457 5.10607 9.37701C5.10976 9.4182 5.11339 9.45482 5.11614 9.48324C5.11708 9.49789 5.11796 9.50979 5.1189 9.51805V9.52812V9.53088V9.58584L5.23609 10.1022C5.06763 10.2853 4.92296 10.4895 4.81034 10.7147C4.65472 11.0269 4.56132 11.3785 4.56132 11.752C4.56132 11.9168 4.57966 12.0862 4.6181 12.2555C4.71056 12.6639 4.83144 13.021 4.97605 13.3313C5.16923 13.7442 5.40636 14.0756 5.67091 14.3347C4.48714 15.914 5.44937 17.8567 5.46214 18.8473C5.48593 20.7645 4.40376 21.3156 4.32138 21.9675C4.30216 21.9766 4.28294 21.983 4.26372 21.9912C3.77939 22.1844 3.28866 22.4042 2.82085 22.6797C2.47111 22.8866 2.13237 23.1247 1.82294 23.4094C1.35782 23.8351 0.956867 24.3652 0.679426 25.0217C0.401105 25.679 0.247297 26.4572 0.248234 27.3755C0.248234 27.5046 0.274777 27.6291 0.31966 27.7426C0.361789 27.8497 0.419445 27.9477 0.486301 28.0411C0.614504 28.2151 0.77927 28.3698 0.981594 28.5199C1.33497 28.7809 1.80648 29.0262 2.41532 29.2561C3.32903 29.6003 4.554 29.9097 6.13696 30.135C7.71987 30.359 9.66079 30.5 12 30.5C14.0278 30.5 15.7564 30.3947 17.2121 30.2199C18.3034 30.089 19.2409 29.9196 20.0374 29.7246C20.6352 29.579 21.1525 29.4197 21.5975 29.2512C21.9298 29.1249 22.2218 28.9931 22.4754 28.8585C22.6659 28.7569 22.8343 28.6525 22.9835 28.5454C23.206 28.3842 23.3854 28.2176 23.5219 28.029C23.5896 27.9347 23.6455 27.834 23.6867 27.725C23.728 27.616 23.7526 27.4979 23.7517 27.3753C23.7517 26.7464 23.6803 26.1842 23.5457 25.6816ZM5.57388 12.0393H5.57294C5.55097 11.9404 5.54089 11.8443 5.54089 11.7519C5.54089 11.5422 5.59216 11.3427 5.68644 11.1522C5.76519 10.9947 5.87593 10.8455 6.0087 10.71C6.23394 11.0506 6.4198 11.3197 6.48753 11.3875C6.7082 11.6073 6.73931 11.0882 6.63402 10.5049C6.44177 9.43285 6.96179 9.91807 8.28472 7.34639C10.9288 7.93414 15.5513 5.12346 15.5513 5.12346C15.5513 5.12346 15.6062 6.40613 16.4878 7.58164C17.3247 8.69674 17.8008 11.3142 17.8008 11.3142C17.8008 11.3142 17.9152 11.0981 18.0836 10.8089C18.1852 10.9279 18.2695 11.0561 18.3317 11.1888C18.4151 11.3683 18.4599 11.555 18.4599 11.75C18.4599 11.8443 18.4499 11.9404 18.4269 12.0393C18.3482 12.3881 18.2484 12.6765 18.1367 12.9155C17.9683 13.2734 17.7751 13.5206 17.5728 13.7019C17.3704 13.8832 17.1553 14.0004 16.931 14.0828L16.714 14.1615L16.638 14.3795C16.4027 15.0423 16.1738 15.5751 15.944 16.0027C15.7142 16.4302 15.4854 16.7507 15.2482 17.0015L15.154 17.1013L15.1256 17.2341C15.0185 17.723 14.9123 18.2632 14.9132 18.9022C14.9132 19.0999 14.9223 19.305 14.9452 19.522C14.9718 19.7756 15.0295 20.0137 15.1174 20.2334C15.1211 20.2444 15.1257 20.2535 15.1293 20.2645L12.1528 21.8281L8.85601 20.2983C8.95761 20.0612 9.02628 19.8012 9.05558 19.5219V19.521C9.07755 19.3049 9.08763 19.0998 9.08763 18.9021C9.08763 18.263 8.98234 17.7211 8.87523 17.2321L8.84593 17.1003L8.75253 17.0014C8.5154 16.7496 8.2856 16.4292 8.05673 16.0016C7.82693 15.575 7.59806 15.0421 7.36368 14.3793L7.28587 14.1632L7.07071 14.0826C6.92054 14.0286 6.77499 13.9572 6.63489 13.8629C6.42343 13.721 6.2238 13.5278 6.03982 13.2385C5.85677 12.9502 5.692 12.563 5.57388 12.0393ZM13.2002 22.0534L15.4753 20.8568C15.5385 20.9373 15.6053 21.0151 15.6758 21.0875C15.8268 21.2422 15.9917 21.3777 16.1675 21.5004L13.2341 26.0808L12.9081 23.8323L13.7394 22.9506L13.2002 22.0534ZM11.3097 23.8322L11.0021 25.9489L7.79312 21.5278C7.87462 21.472 7.95425 21.4143 8.03025 21.3539C8.20146 21.2165 8.36077 21.0618 8.49993 20.8888L11.0149 22.0561L10.4784 22.9505L11.3097 23.8322ZM22.7474 27.4256C22.7144 27.4806 22.6375 27.5721 22.5084 27.6765C22.3958 27.7681 22.2438 27.8687 22.0525 27.9731C21.7183 28.1562 21.2642 28.3476 20.6874 28.528C19.8232 28.8008 18.6824 29.0498 17.2432 29.2293C15.8031 29.4087 14.0645 29.5204 12 29.5204C10.006 29.5204 8.31501 29.417 6.90513 29.2476C5.84675 29.1204 4.94681 28.9565 4.19517 28.7734C3.6312 28.636 3.15056 28.4868 2.75048 28.3348C2.45019 28.2213 2.19566 28.106 1.98601 27.9942C1.82851 27.91 1.69667 27.8267 1.58956 27.7498C1.42749 27.6344 1.32495 27.5301 1.27462 27.4578C1.24896 27.4221 1.23618 27.3964 1.23068 27.3818C1.22886 27.3763 1.22792 27.3735 1.22792 27.3717C1.22792 26.8233 1.28927 26.3546 1.39732 25.9462C1.49159 25.5891 1.62161 25.2806 1.77911 25.006C2.05562 24.5271 2.41814 24.1508 2.84939 23.8331C3.17165 23.5951 3.53148 23.3909 3.91415 23.2088C4.48726 22.9368 5.108 22.7144 5.71773 22.4901C6.23042 22.3006 6.73486 22.1101 7.19816 21.8748L12.2682 28.8594L16.757 21.8519C16.9813 21.9673 17.2148 22.0726 17.4556 22.1724C18.0571 22.4196 18.6989 22.6329 19.3177 22.8782C19.7829 23.0623 20.2342 23.2628 20.6444 23.5017C20.9529 23.6812 21.2386 23.8817 21.493 24.1106C21.8739 24.4558 22.187 24.865 22.4113 25.3878C22.6356 25.9115 22.7711 26.5541 22.772 27.3726C22.7711 27.3771 22.7656 27.3963 22.7474 27.4256Z" fill="#3B83F7"/>
<path d="M19.5879 26.8196H15.6694V27.5063H19.5879V26.8196Z" fill="#3B83F7"/>
</svg>
