<svg width="30" height="31" viewBox="0 0 30 31" fill="none" xmlns="http://www.w3.org/2000/svg">
<path d="M15 30.5C23.2843 30.5 30 23.7843 30 15.5C30 7.21573 23.2843 0.5 15 0.5C6.71573 0.5 0 7.21573 0 15.5C0 23.7843 6.71573 30.5 15 30.5Z" fill="#3B83F7"/>
<g opacity="0.2">
<path d="M19.9219 21.1251C19.5938 21.1251 19.3125 20.9844 19.125 20.6563C18.8438 20.2344 18.9844 19.6251 19.4531 19.3438L24.1875 16.4376C24.1875 16.4376 24.1875 16.4376 24.1875 16.3907C24.1875 16.3438 24.1875 16.3907 24.1875 16.3438L19.4531 13.4376C19.0313 13.1563 18.8906 12.5938 19.125 12.1251C19.4063 11.7032 19.9688 11.5626 20.4375 11.7969L25.4063 14.8907L25.5 14.9844C25.875 15.3594 26.0625 15.8751 26.0625 16.3907C26.0625 16.9063 25.875 17.4219 25.5 17.7969L25.4063 17.8907L20.4375 20.9844C20.25 21.0782 20.0625 21.1251 19.9219 21.1251Z" fill="#231F20"/>
<path d="M10.0781 21.125C9.89062 21.125 9.75 21.0782 9.60938 20.9844L4.64062 17.8907L4.54687 17.8438C4.17187 17.4688 3.98438 16.9532 3.98438 16.4375C3.98438 15.9219 4.17187 15.4063 4.54687 15.0313L4.64062 14.9375L9.60938 11.8438C10.0312 11.5625 10.6406 11.7032 10.9219 12.1719C11.2031 12.5938 11.0625 13.2032 10.5938 13.4844L5.85938 16.3907C5.85938 16.3907 5.85938 16.3907 5.85938 16.4375C5.85938 16.4844 5.85938 16.4375 5.85938 16.4844L10.5938 19.3907C11.0156 19.6719 11.1562 20.2344 10.9219 20.7032C10.7344 20.9844 10.4062 21.125 10.0781 21.125Z" fill="#231F20"/>
</g>
<g opacity="0.2">
<path d="M11.9531 25.3437C11.8594 25.3437 11.7188 25.3437 11.625 25.2968C11.1563 25.1093 10.9219 24.5468 11.0625 24.0781L17.1563 8.1406C17.3438 7.67185 17.9063 7.43747 18.375 7.5781C18.8438 7.7656 19.0781 8.3281 18.9375 8.79685L12.8438 24.7343C12.7031 25.1093 12.3281 25.3437 11.9531 25.3437Z" fill="#231F20"/>
</g>
<path d="M19.9219 20.1875C19.5938 20.1875 19.3125 20.0469 19.125 19.7188C18.8438 19.2969 18.9844 18.6875 19.4531 18.4063L24.1875 15.5V15.4531L19.4531 12.5469C19.0313 12.2656 18.8906 11.7031 19.125 11.2344C19.4063 10.8125 19.9688 10.6719 20.4375 10.9063L25.4063 14L25.5 14.0938C26.25 14.8438 26.25 16.1094 25.5 16.9063L25.4063 17L20.4375 20.0938C20.25 20.1406 20.0625 20.1875 19.9219 20.1875Z" fill="white"/>
<path d="M10.0781 20.1875C9.89062 20.1875 9.75 20.1406 9.60938 20.0469L4.64062 16.9531L4.54688 16.9063C3.79688 16.1563 3.79688 14.8906 4.54688 14.0938L4.64062 14L9.60938 10.9063C10.0312 10.625 10.6406 10.7656 10.9219 11.2344C11.2031 11.6563 11.0625 12.2656 10.5938 12.5469L5.85938 15.4531V15.5L10.5938 18.4063C11.0156 18.6875 11.1562 19.25 10.9219 19.7188C10.7344 20.0469 10.4062 20.1875 10.0781 20.1875Z" fill="white"/>
<path d="M11.9531 24.4062C11.8594 24.4062 11.7188 24.4062 11.625 24.3593C11.1563 24.1718 10.9219 23.6093 11.0625 23.1406L17.1563 7.2031C17.3438 6.73435 17.9063 6.49997 18.375 6.6406C18.8438 6.8281 19.0781 7.3906 18.9375 7.85935L12.8438 23.7968C12.7031 24.1718 12.3281 24.4062 11.9531 24.4062Z" fill="white"/>
</svg>
