<svg width="18" height="20" viewBox="0 0 18 20" fill="none" xmlns="http://www.w3.org/2000/svg">
<path d="M18 14.8292V9.16253C18 8.11893 18 7.59713 17.7169 7.2043C17.4881 6.88697 17.1212 6.71831 16.4667 6.49124C16.3328 8.09743 15.8009 9.73773 14.9655 11.1734C13.9928 12.845 12.5484 14.3395 10.697 15.1472C9.618 15.6179 8.382 15.6179 7.303 15.1472C5.45164 14.3395 4.00718 12.845 3.03449 11.1734C2.40086 10.0844 1.9418 8.87783 1.69862 7.65755C1.31607 7.6012 1.0225 7.63011 0.76917 7.77145C0.66809 7.82784 0.57388 7.89575 0.48841 7.97381C0 8.41993 0 9.24933 0 10.9082V15.8379C0 16.8815 -5.96046e-08 17.4033 0.28314 17.7961C0.56627 18.189 1.06129 18.354 2.05132 18.684L2.43488 18.8118C4.01185 19.3375 4.80035 19.6003 5.60688 19.6018C5.8498 19.6023 6.09242 19.5851 6.33284 19.5503C7.131 19.4347 7.8809 19.0597 9.3806 18.3099C10.5299 17.7352 11.1046 17.4479 11.715 17.3146C11.9292 17.2678 12.1463 17.2352 12.3648 17.2169C12.9875 17.1648 13.6157 17.2695 14.8721 17.4789C16.1455 17.6911 16.7821 17.7972 17.247 17.5303C17.4048 17.4396 17.5449 17.321 17.6603 17.1802C18 16.7655 18 16.1201 18 14.8292Z" fill="#3B83F7"/>
<path fill-rule="evenodd" clip-rule="evenodd" d="M9 3.05176e-05C5.68629 3.05176e-05 3 2.55214 3 5.70034C3 8.82383 4.91499 12.4687 7.9028 13.7721C8.5993 14.076 9.4007 14.076 10.0972 13.7721C13.085 12.4687 15 8.82383 15 5.70034C15 2.55214 12.3137 3.05176e-05 9 3.05176e-05ZM9 8.00003C10.1046 8.00003 11 7.1046 11 6.00003C11 4.89546 10.1046 4.00003 9 4.00003C7.8954 4.00003 7 4.89546 7 6.00003C7 7.1046 7.8954 8.00003 9 8.00003Z" fill="#3B83F7"/>
</svg>
