<svg width="28" height="28" viewBox="0 0 28 28" fill="none" xmlns="http://www.w3.org/2000/svg">
<path d="M27.0207 12.8216L15.1942 0.995026C14.8643 0.66515 14.4318 0.5 13.9997 0.5C13.5676 0.5 13.1351 0.66515 12.8052 0.995026L0.978651 12.8216C0.318897 13.483 0.351843 14.5179 1.0116 15.1776C1.67304 15.8407 2.63986 15.9383 3.30173 15.2764L3.87869 14.6991V25.8426C3.87869 26.7765 4.63433 27.5322 5.5682 27.5322H12.3262V20.7741H15.7053V27.5322H22.4633C23.3972 27.5322 24.1528 26.7765 24.1528 25.8426V14.732L24.6575 15.2367C25.3173 15.8965 26.3255 15.8374 26.9874 15.1772C27.6476 14.5179 27.6822 13.4813 27.0207 12.8216Z" fill="#3B83F7"/>
</svg>
