<svg width="12" height="20" viewBox="0 0 12 20" fill="none" xmlns="http://www.w3.org/2000/svg">
<path d="M10.208 3.08033e-05H1.79292C1.6016 -8.91025e-05 1.41215 0.0375342 1.2354 0.110746C1.05865 0.183957 0.898083 0.291318 0.76289 0.42668C0.627697 0.562042 0.520536 0.722745 0.447546 0.899584C0.374555 1.07642 0.337168 1.26593 0.337527 1.45724V18.5446C0.337407 18.7358 0.374971 18.9251 0.448068 19.1017C0.521166 19.2784 0.628365 19.4389 0.763534 19.574C0.898703 19.7092 1.05919 19.8164 1.23582 19.8895C1.41245 19.9626 1.60176 20.0002 1.79292 20H10.208C11.0107 20 11.6625 19.3473 11.6625 18.5446V1.45724C11.6625 0.652729 11.0107 3.08033e-05 10.208 3.08033e-05ZM4.52915 0.929988H7.53084V1.62814H4.52915V0.929988ZM6.00091 18.561C5.75465 18.5608 5.51853 18.463 5.34423 18.289C5.16994 18.115 5.07167 17.8791 5.07095 17.6329C5.08154 17.3936 5.18404 17.1676 5.35712 17.002C5.53019 16.8364 5.76047 16.744 6 16.744C6.23952 16.744 6.46981 16.8364 6.64288 17.002C6.81595 17.1676 6.91846 17.3936 6.92904 17.6329C6.92814 18.0819 6.51088 18.561 6.00091 18.561ZM10.5716 15.3784H1.42839V2.4581H10.5716V15.3784Z" fill="#3B83F7"/>
</svg>
