<svg width="28" height="28" viewBox="0 0 28 28" fill="none" xmlns="http://www.w3.org/2000/svg">
<path d="M12.65 16.2149H1.85V24.3149C1.85 25.031 2.13446 25.7177 2.64081 26.2241C3.14716 26.7304 3.83392 27.0149 4.55 27.0149H23.45C24.1661 27.0149 24.8528 26.7304 25.3592 26.2241C25.8655 25.7177 26.15 25.031 26.15 24.3149V16.2149H15.35V18.9149H12.65V16.2149ZM12.65 14.8649H0.5V6.76489C0.5 5.27989 1.715 4.06489 3.2 4.06489H8.6V2.71489C8.6 1.99881 8.88446 1.31205 9.39081 0.805704C9.89716 0.299356 10.5839 0.0148926 11.3 0.0148926L16.7 0.0148926C17.4161 0.0148926 18.1028 0.299356 18.6092 0.805704C19.1155 1.31205 19.4 1.99881 19.4 2.71489V4.06489H24.8C25.5161 4.06489 26.2028 4.34936 26.7092 4.8557C27.2155 5.36205 27.5 6.04881 27.5 6.76489V14.8649H15.35V12.1649H12.65V14.8649ZM16.7 4.06489V2.71489H11.3V4.06489H16.7Z" fill="#A2A6B0"/>
</svg>
